<svg xmlns="http://www.w3.org/2000/svg" viewBox="1898.6 336.7 355 232.8" role="img" aria-label="Omani rial"><path fill="currentColor" d="M2044.8,451.3c-6.5-11.2-11.8-23.3-14.1-36.1-1.6-9-1.4-18.5.3-27.7,6.8-5,14.8-8.3,23.6-9.5,8.7-1.2,17.1-.4,25.2,3,8.5,3.5,16,9.1,22.8,15.1,7.6,6.8,20.8,22.4,20.8,22.4l23.5-40.7c-8.8-11-18.4-21.6-29.9-29.8-5.7-4.1-12-7.6-18.8-9.6-6.4-1.9-12.9-2.1-19.4-1.3-11.4,1.4-22.2,6.3-30.2,14.5-6.5,6.6-32.9,50-37.4,63.4-3.7,11-5.6,23.1-4.7,34.6,0,.5,0,1,.2,1.5h-39.8l-23.5,40.7h77.9c7.8,13.5,17.6,26,28.7,37h-127.9l-23.5,40.7h286.7l23.5-40.7h-62.5c-26.1-3.5-50.1-19.2-68.9-37h152.7l23.5-40.7h-208.7v.2Z"/></svg>
